<svg width="48" height="48" viewBox="0 0 48 48" fill="none" xmlns="http://www.w3.org/2000/svg">
<path d="M40 43H8C6.895 43 6 42.105 6 41V20L24 3L42 20V41C42 42.105 41.105 43 40 43Z" fill="url(#paint0_linear_197_3697)"/>
<path opacity="0.05" d="M24 4C23.526 4 23.052 4.168 22.674 4.503L17.315 9.314L6 20V25.39L24 9.428L42 25.39V20L30.685 9.314L25.326 4.503C24.948 4.168 24.474 4 24 4Z" fill="black"/>
<path opacity="0.07" d="M24 3C23.526 3 23.052 3.167 22.674 3.5L17.315 8.284L6 18.909V24.268L24 8.397L42 24.268V18.909L30.685 8.284L25.326 3.5C24.948 3.167 24.474 3 24 3Z" fill="black"/>
<path d="M44.495 19.507L25.326 2.503C24.948 2.168 24.474 2 24 2C23.526 2 23.052 2.168 22.674 2.503L3.50499 19.507C3.08499 19.881 3.05599 20.527 3.44099 20.937L5.07699 22.682C5.44599 23.076 6.06099 23.106 6.46699 22.749L24 7.428L41.533 22.75C41.938 23.106 42.554 23.077 42.923 22.683L44.559 20.938C44.944 20.527 44.915 19.881 44.495 19.507Z" fill="url(#paint1_linear_197_3697)"/>
<path d="M25.105 40.3409L32.34 36.3469L31.27 34.0959L25 36.9999L25.105 40.3409Z" fill="#C98E00"/>
<path d="M31.75 36.5C32.4404 36.5 33 35.9404 33 35.25C33 34.5596 32.4404 34 31.75 34C31.0596 34 30.5 34.5596 30.5 35.25C30.5 35.9404 31.0596 36.5 31.75 36.5Z" fill="#C98E00"/>
<path d="M34.5 35.75C34.5 35.06 33.94 34.5 33.25 34.5C33.08 34.5 32.918 34.535 32.771 34.596L32.765 34.598C32.764 34.598 32.763 34.599 32.762 34.599L26.5 37.5L25.75 37C26.441 37 27 36.44 27 35.75C27 35.285 26.743 34.884 26.367 34.668L26.369 34.66L19.543 31.227H19.531C19.215 31.084 18.868 31 18.5 31C18.141 31 17.802 31.078 17.493 31.215H17.482L13.5 33V39.5L17.545 37.641L25.5 40.895C25.654 40.962 25.823 41 26 41C26.217 41 26.419 40.939 26.597 40.841H26.605L33.84 36.847V36.846C34.231 36.634 34.5 36.226 34.5 35.75Z" fill="url(#paint2_linear_197_3697)"/>
<path d="M25.75 36.5C26.1642 36.5 26.5 36.1642 26.5 35.75C26.5 35.3358 26.1642 35 25.75 35C25.3358 35 25 35.3358 25 35.75C25 36.1642 25.3358 36.5 25.75 36.5Z" fill="#FFDE87"/>
<path d="M26.5 37.4999L25.756 37.0009C25.128 36.9709 24.635 36.7669 20.5 35.2439V36.9999L26.275 39.3669C26.275 39.3669 25.867 38.2259 26.5 37.4999Z" fill="url(#paint3_linear_197_3697)"/>
<path d="M24 20.5C24 20.5 25.343 19 27 19C28.657 19 30 20.361 30 22C30 24.82 25.581 28.039 24.328 28.896C24.129 29.032 23.871 29.032 23.673 28.896C22.419 28.039 18 24.82 18 22C18 20.361 19.343 19 21 19C22.657 19 24 20.5 24 20.5Z" fill="url(#paint4_linear_197_3697)"/>
<defs>
<linearGradient id="paint0_linear_197_3697" x1="6" y1="23" x2="42" y2="23" gradientUnits="userSpaceOnUse">
<stop stop-color="#11408A"/>
<stop offset="1" stop-color="#103F8F"/>
</linearGradient>
<linearGradient id="paint1_linear_197_3697" x1="3.16999" y1="12.499" x2="44.83" y2="12.499" gradientUnits="userSpaceOnUse">
<stop stop-color="#1D59B3"/>
<stop offset="1" stop-color="#195BBC"/>
</linearGradient>
<linearGradient id="paint2_linear_197_3697" x1="13.5" y1="36" x2="34.5" y2="36" gradientUnits="userSpaceOnUse">
<stop stop-color="#FFCF54"/>
<stop offset="0.261" stop-color="#FDCB4D"/>
<stop offset="0.639" stop-color="#F7C13A"/>
<stop offset="1" stop-color="#F0B421"/>
</linearGradient>
<linearGradient id="paint3_linear_197_3697" x1="23.168" y1="37.6839" x2="24.061" y2="36.1439" gradientUnits="userSpaceOnUse">
<stop stop-color="#F0B421" stop-opacity="0"/>
<stop offset="0.512" stop-color="#E9AB12" stop-opacity="0.512"/>
<stop offset="1" stop-color="#E09F00"/>
</linearGradient>
<linearGradient id="paint4_linear_197_3697" x1="21.599" y1="18.391" x2="27.238" y2="27.075" gradientUnits="userSpaceOnUse">
<stop stop-color="#F44F5A"/>
<stop offset="0.443" stop-color="#EE3D4A"/>
<stop offset="1" stop-color="#E52030"/>
</linearGradient>
</defs>
</svg>
