<svg width="48" height="48" viewBox="0 0 48 48" fill="none" xmlns="http://www.w3.org/2000/svg">
<path d="M10.185 3.56C9.516 3.18 8.983 3 8.209 3C6.884 3 6 3.875 6 5.406V42.594C6 44.125 6.884 45 8.209 45C8.982 45 9.516 44.82 10.185 44.44L32.308 31.966L35 28L39.418 27.957L42.398 26.277C43.287 25.773 44 25.094 44 24C44 22.906 43.287 22.225 42.397 21.721L10.185 3.56Z" fill="#097138"/>
<path d="M39.42 27.96L37.62 17.78C37.03 14.44 34.12 12 30.72 12H19.6C17.52 12 15.65 12.84 14.29 14.2C12.94 15.56 12.1 17.43 12.1 19.5C12.1 23.091 14.623 26.092 18 26.825V29H29.471L32.31 31.97L39.42 27.96Z" fill="url(#paint0_linear_197_3645)"/>
<path d="M14.959 33.883L21.539 27H30.5C34.642 27 38 23.642 38 19.5C38 15.358 34.642 12 30.5 12H18.372C14.976 12 12.07 14.438 11.479 17.782L9.15399 30.942C8.56799 34.255 12.635 36.314 14.959 33.883Z" fill="#00E26B"/>
<path opacity="0.05" d="M16.5 24V21.5H14V17.5H16.5V15H20.5V17.5H23V21.5H20.5V24H16.5Z" fill="black"/>
<path opacity="0.07" d="M17 23.5V21H14.5V18H17V15.5H20V18H22.5V21H20V23.5H17Z" fill="black"/>
<path d="M22 18.5H19.5V16H17.5V18.5H15V20.5H17.5V23H19.5V20.5H22V18.5Z" fill="white"/>
<path opacity="0.05" d="M33.25 17.25C33.155 17.25 33.064 17.267 32.972 17.278C32.983 17.186 33 17.095 33 17C33 15.759 31.99 14.75 30.75 14.75C29.51 14.75 28.5 15.759 28.5 17C28.5 17.095 28.517 17.186 28.528 17.278C28.436 17.266 28.345 17.25 28.25 17.25C27.01 17.25 26 18.259 26 19.5C26 20.741 27.01 21.75 28.25 21.75C28.345 21.75 28.436 21.733 28.528 21.722C28.517 21.814 28.5 21.905 28.5 22C28.5 23.241 29.51 24.25 30.75 24.25C31.99 24.25 33 23.241 33 22C33 21.905 32.983 21.814 32.972 21.722C33.064 21.734 33.155 21.75 33.25 21.75C34.49 21.75 35.5 20.741 35.5 19.5C35.5 18.259 34.49 17.25 33.25 17.25Z" fill="black"/>
<path opacity="0.07" d="M28.25 21.25C29.2165 21.25 30 20.4665 30 19.5C30 18.5335 29.2165 17.75 28.25 17.75C27.2835 17.75 26.5 18.5335 26.5 19.5C26.5 20.4665 27.2835 21.25 28.25 21.25Z" fill="black"/>
<path opacity="0.07" d="M33.25 21.25C34.2165 21.25 35 20.4665 35 19.5C35 18.5335 34.2165 17.75 33.25 17.75C32.2835 17.75 31.5 18.5335 31.5 19.5C31.5 20.4665 32.2835 21.25 33.25 21.25Z" fill="black"/>
<path opacity="0.07" d="M30.75 18.75C31.7165 18.75 32.5 17.9665 32.5 17C32.5 16.0335 31.7165 15.25 30.75 15.25C29.7835 15.25 29 16.0335 29 17C29 17.9665 29.7835 18.75 30.75 18.75Z" fill="black"/>
<path opacity="0.07" d="M30.75 23.75C31.7165 23.75 32.5 22.9665 32.5 22C32.5 21.0335 31.7165 20.25 30.75 20.25C29.7835 20.25 29 21.0335 29 22C29 22.9665 29.7835 23.75 30.75 23.75Z" fill="black"/>
<path d="M28.25 20.75C28.9404 20.75 29.5 20.1904 29.5 19.5C29.5 18.8096 28.9404 18.25 28.25 18.25C27.5596 18.25 27 18.8096 27 19.5C27 20.1904 27.5596 20.75 28.25 20.75Z" fill="white"/>
<path d="M33.25 20.75C33.9404 20.75 34.5 20.1904 34.5 19.5C34.5 18.8096 33.9404 18.25 33.25 18.25C32.5596 18.25 32 18.8096 32 19.5C32 20.1904 32.5596 20.75 33.25 20.75Z" fill="white"/>
<path d="M30.75 18.25C31.4404 18.25 32 17.6904 32 17C32 16.3096 31.4404 15.75 30.75 15.75C30.0596 15.75 29.5 16.3096 29.5 17C29.5 17.6904 30.0596 18.25 30.75 18.25Z" fill="white"/>
<path d="M30.75 23.25C31.4404 23.25 32 22.6904 32 22C32 21.3096 31.4404 20.75 30.75 20.75C30.0596 20.75 29.5 21.3096 29.5 22C29.5 22.6904 30.0596 23.25 30.75 23.25Z" fill="white"/>
<defs>
<linearGradient id="paint0_linear_197_3645" x1="19.913" y1="10.656" x2="32.282" y2="32.081" gradientUnits="userSpaceOnUse">
<stop stop-color="#00B359"/>
<stop offset="1" stop-color="#019D4D"/>
</linearGradient>
</defs>
</svg>
