<svg width="48" height="48" viewBox="0 0 48 48" fill="none" xmlns="http://www.w3.org/2000/svg">
<path d="M21.7191 3.96C21.706 3.90108 21.6996 3.84086 21.7 3.78049C21.6982 3.57535 21.778 3.37792 21.9218 3.23158C22.0655 3.08523 22.2615 3.00194 22.4666 3C22.5903 3.00291 22.7117 3.03303 22.8224 3.0882C23.76 3.46127 30.1985 6.552 28.7096 15.4878C30.8716 14.1618 30.0988 11.5854 30.8057 11.5854C31.0717 11.5854 31.1798 11.686 31.3423 11.9225C33.709 15.3598 35.5 19.4582 35.5 23.2927C35.5271 26.3701 34.3309 29.3322 32.1743 31.5277C30.0177 33.7232 27.0774 34.9722 24 35C20.9273 34.9574 17.9956 33.7037 15.8422 31.5114C13.6888 29.3192 12.4877 26.3656 12.5 23.2927C12.5 13.7809 23.5116 12.0248 21.7191 3.96Z" fill="url(#paint0_linear_197_3661)"/>
<path d="M23.6904 16.1695C23.5451 16.061 23.3689 16.0016 23.1875 16.0001C22.9748 15.9974 22.7698 16.0793 22.6174 16.2278C22.4651 16.3762 22.3779 16.579 22.375 16.7917C23.1875 21.5417 17.5 23.1251 17.5 28.6667C17.544 30.3614 18.2481 31.9719 19.4623 33.155C20.6765 34.3381 22.3047 35.0002 24 35.0002C25.6953 35.0002 27.3235 34.3381 28.5377 33.155C29.7519 31.9719 30.456 30.3614 30.5 28.6667C30.5 24.1542 26.4204 18.1304 23.6904 16.1695Z" fill="url(#paint1_linear_197_3661)"/>
<path d="M11 37H37C38.0609 37 39.0783 37.4214 39.8284 38.1716C40.5786 38.9217 41 39.9391 41 41C41 41.5304 40.7893 42.0391 40.4142 42.4142C40.0391 42.7893 39.5304 43 39 43H9C8.46957 43 7.96086 42.7893 7.58579 42.4142C7.21071 42.0391 7 41.5304 7 41C7 39.9391 7.42143 38.9217 8.17157 38.1716C8.92172 37.4214 9.93913 37 11 37Z" fill="url(#paint2_linear_197_3661)"/>
<path d="M23 37H25V40C25 40.2652 24.8946 40.5196 24.7071 40.7071C24.5196 40.8946 24.2652 41 24 41C23.7348 41 23.4804 40.8946 23.2929 40.7071C23.1054 40.5196 23 40.2652 23 40V37Z" fill="#64717C"/>
<path d="M18 37H20V40C20 40.2652 19.8946 40.5196 19.7071 40.7071C19.5196 40.8946 19.2652 41 19 41C18.7348 41 18.4804 40.8946 18.2929 40.7071C18.1054 40.5196 18 40.2652 18 40V37Z" fill="#64717C"/>
<path d="M13 37H15V40C15 40.2652 14.8946 40.5196 14.7071 40.7071C14.5196 40.8946 14.2652 41 14 41C13.7348 41 13.4804 40.8946 13.2929 40.7071C13.1054 40.5196 13 40.2652 13 40V37Z" fill="#64717C"/>
<path d="M33 37H35V40C35 40.2652 34.8946 40.5196 34.7071 40.7071C34.5196 40.8946 34.2652 41 34 41C33.7348 41 33.4804 40.8946 33.2929 40.7071C33.1054 40.5196 33 40.2652 33 40V37Z" fill="#64717C"/>
<path d="M28 37H30V40C30 40.2652 29.8946 40.5196 29.7071 40.7071C29.5196 40.8946 29.2652 41 29 41C28.7348 41 28.4804 40.8946 28.2929 40.7071C28.1054 40.5196 28 40.2652 28 40V37Z" fill="#64717C"/>
<defs>
<linearGradient id="paint0_linear_197_3661" x1="24" y1="2.933" x2="24" y2="34.884" gradientUnits="userSpaceOnUse">
<stop stop-color="#2AA4F4"/>
<stop offset="1" stop-color="#007AD9"/>
</linearGradient>
<linearGradient id="paint1_linear_197_3661" x1="24" y1="16.4131" x2="24" y2="34.7471" gradientUnits="userSpaceOnUse">
<stop stop-color="#A3FFFF"/>
<stop offset="0.223" stop-color="#9DFBFF"/>
<stop offset="0.53" stop-color="#8BF1FF"/>
<stop offset="0.885" stop-color="#6EE0FF"/>
<stop offset="1" stop-color="#63DAFF"/>
</linearGradient>
<linearGradient id="paint2_linear_197_3661" x1="24" y1="38.783" x2="24" y2="48.893" gradientUnits="userSpaceOnUse">
<stop stop-color="#889097"/>
<stop offset="1" stop-color="#4C5963"/>
</linearGradient>
</defs>
</svg>
