<svg width="48" height="48" viewBox="0 0 48 48" fill="none" xmlns="http://www.w3.org/2000/svg">
<path d="M37 31.75H11V45H37V31.75Z" fill="url(#paint0_linear_197_3675)"/>
<path d="M15 32.25H13V45H15V32.25Z" fill="#64717C"/>
<path d="M19 32.25H17V45H19V32.25Z" fill="#64717C"/>
<path d="M23 32.25H21V45H23V32.25Z" fill="#64717C"/>
<path d="M27 32.25H25V45H27V32.25Z" fill="#64717C"/>
<path d="M31 32.25H29V45H31V32.25Z" fill="#64717C"/>
<path d="M35 32.25H33V45H35V32.25Z" fill="#64717C"/>
<path d="M24 2C24.2652 2 24.5196 2.10536 24.7071 2.29289C24.8946 2.48043 25 2.73478 25 3V6H23V3C23 2.73478 23.1054 2.48043 23.2929 2.29289C23.4804 2.10536 23.7348 2 24 2Z" fill="#64717C"/>
<path d="M24 5C24.5304 5 25.0391 5.21071 25.4142 5.58579C25.7893 5.96086 26 6.46957 26 7V11H22V7C22 6.46957 22.2107 5.96086 22.5858 5.58579C22.9609 5.21071 23.4696 5 24 5Z" fill="#ABC1C9"/>
<path d="M35 18.5H13V28.75H35V18.5Z" fill="url(#paint1_linear_197_3675)"/>
<path d="M10 29.5H38V31C38 31.5304 37.7893 32.0391 37.4142 32.4142C37.0391 32.7893 36.5304 33 36 33H12C11.4696 33 10.9609 32.7893 10.5858 32.4142C10.2107 32.0391 10 31.5304 10 31V29.5Z" fill="url(#paint2_linear_197_3675)"/>
<path d="M16 21C16.2652 21 16.5196 21.1054 16.7071 21.2929C16.8946 21.4804 17 21.7348 17 22V28.75H15V22C15 21.7348 15.1054 21.4804 15.2929 21.2929C15.4804 21.1054 15.7348 21 16 21Z" fill="#64717C"/>
<path d="M20 21C20.2652 21 20.5196 21.1054 20.7071 21.2929C20.8946 21.4804 21 21.7348 21 22V28.75H19V22C19 21.7348 19.1054 21.4804 19.2929 21.2929C19.4804 21.1054 19.7348 21 20 21Z" fill="#64717C"/>
<path d="M24 21C24.2652 21 24.5196 21.1054 24.7071 21.2929C24.8946 21.4804 25 21.7348 25 22V28.75H23V22C23 21.7348 23.1054 21.4804 23.2929 21.2929C23.4804 21.1054 23.7348 21 24 21Z" fill="#64717C"/>
<path d="M28 21C28.2652 21 28.5196 21.1054 28.7071 21.2929C28.8946 21.4804 29 21.7348 29 22V28.75H27V22C27 21.7348 27.1054 21.4804 27.2929 21.2929C27.4804 21.1054 27.7348 21 28 21Z" fill="#64717C"/>
<path d="M32 21C32.2652 21 32.5196 21.1054 32.7071 21.2929C32.8946 21.4804 33 21.7348 33 22V28.75H31V22C31 21.7348 31.1054 21.4804 31.2929 21.2929C31.4804 21.1054 31.7348 21 32 21Z" fill="#64717C"/>
<path d="M34.902 18C34.9639 17.7039 34.9967 17.4025 35 17.1C35 14.85 32 9 24 9C16 9 13 14.85 13 17.1C13.0033 17.4025 13.0361 17.7039 13.098 18H34.902Z" fill="url(#paint3_linear_197_3675)"/>
<path d="M39 44H9C8.44772 44 8 44.4477 8 45C8 45.5523 8.44772 46 9 46H39C39.5523 46 40 45.5523 40 45C40 44.4477 39.5523 44 39 44Z" fill="#ABC1C9"/>
<path d="M38 28H10C9.44772 28 9 28.4477 9 29C9 29.5523 9.44772 30 10 30H38C38.5523 30 39 29.5523 39 29C39 28.4477 38.5523 28 38 28Z" fill="#ABC1C9"/>
<path d="M35 17H13C12.4477 17 12 17.4477 12 18C12 18.5523 12.4477 19 13 19H35C35.5523 19 36 18.5523 36 18C36 17.4477 35.5523 17 35 17Z" fill="#ABC1C9"/>
<defs>
<linearGradient id="paint0_linear_197_3675" x1="24" y1="45.141" x2="24" y2="32.684" gradientUnits="userSpaceOnUse">
<stop stop-color="#DFE9F2"/>
<stop offset="0.769" stop-color="#D6E0E9"/>
<stop offset="0.945" stop-color="#BFC8D1"/>
</linearGradient>
<linearGradient id="paint1_linear_197_3675" x1="24" y1="28.478" x2="24" y2="18.027" gradientUnits="userSpaceOnUse">
<stop stop-color="#DFE9F2"/>
<stop offset="0.718" stop-color="#D6E0E9"/>
<stop offset="0.899" stop-color="#BFC8D1"/>
</linearGradient>
<linearGradient id="paint2_linear_197_3675" x1="24" y1="32.783" x2="24" y2="29.66" gradientUnits="userSpaceOnUse">
<stop stop-color="#DFE9F2"/>
<stop offset="0.647" stop-color="#D6E0E9"/>
<stop offset="0.898" stop-color="#BFC8D1"/>
</linearGradient>
<linearGradient id="paint3_linear_197_3675" x1="11.586" y1="3.891" x2="29.575" y2="21.879" gradientUnits="userSpaceOnUse">
<stop stop-color="#DFE9F2"/>
<stop offset="0.391" stop-color="#D6E0E9"/>
<stop offset="1" stop-color="#BFC8D1"/>
</linearGradient>
</defs>
</svg>
