<svg width="48" height="48" viewBox="0 0 48 48" fill="none" xmlns="http://www.w3.org/2000/svg">
<path d="M44 24C44 35.045 35.045 44 24 44C12.955 44 4 35.045 4 24C4 12.955 12.955 4 24 4C35.045 4 44 12.955 44 24Z" fill="url(#paint0_radial_197_3625)"/>
<path d="M41 24C41 21.535 40.601 19.182 39.904 17H42.715C42.459 16.315 42.169 15.647 41.842 15H39.16C36.355 8.485 30.621 4 24 4C17.379 4 11.645 8.485 8.839 15H6.157C5.83 15.647 5.541 16.315 5.284 17H8.095C7.399 19.182 7 21.535 7 24C7 26.465 7.399 28.818 8.096 31H5.285C5.541 31.685 5.831 32.353 6.158 33H8.84C11.646 39.515 17.38 44 24.001 44C30.622 44 36.356 39.515 39.162 33H41.844C42.171 32.353 42.46 31.685 42.717 31H39.906C40.601 28.818 41 26.465 41 24ZM39 24C39 26.481 38.579 28.847 37.819 31H31.51C31.833 28.734 32 26.35 32 24C32 21.65 31.834 19.266 31.51 17H37.819C38.579 19.153 39 21.519 39 24ZM24 42C22.064 42 19.979 38.555 18.848 33H29.152C28.021 38.555 25.936 42 24 42ZM18.5 31C18.185 28.887 18 26.539 18 24C18 21.461 18.185 19.113 18.5 17H29.5C29.815 19.113 30 21.461 30 24C30 26.539 29.815 28.887 29.5 31H18.5ZM24 6C25.936 6 28.021 9.445 29.152 15H18.848C19.979 9.445 22.064 6 24 6ZM36.97 15H31.178C30.539 11.67 29.535 8.728 28.184 6.727C31.922 8.033 35.054 11.038 36.97 15ZM19.816 6.727C18.466 8.729 17.461 11.67 16.822 15H11.03C12.946 11.038 16.078 8.033 19.816 6.727ZM9 24C9 21.519 9.421 19.153 10.181 17H16.49C16.166 19.266 16 21.65 16 24C16 26.35 16.166 28.734 16.49 31H10.181C9.421 28.847 9 26.481 9 24ZM11.03 33H16.822C17.461 36.33 18.465 39.272 19.816 41.273C16.078 39.967 12.946 36.962 11.03 33ZM28.184 41.273C29.534 39.271 30.539 36.33 31.178 33H36.97C35.054 36.962 31.922 39.967 28.184 41.273Z" fill="url(#paint1_radial_197_3625)"/>
<path opacity="0.05" d="M35.264 30.3021L27.369 22.4071C26.962 22.0011 26.359 21.8841 25.839 22.1141C25.329 22.3331 25 22.8331 25 23.3881V34.6861C25 35.9901 26.393 36.5251 27.289 35.7571L28.872 34.4381L30.059 37.1681C30.287 37.6881 31.066 38.1891 31.885 37.8851L33.23 37.3001C33.937 37.0001 34.318 36.2651 33.951 35.4741L32.799 32.8221L34.401 32.6781C35.677 32.6781 36.15 31.1801 35.264 30.3021Z" fill="black"/>
<path opacity="0.07" d="M34.91 30.6551L27.015 22.7601C26.749 22.4951 26.365 22.4301 26.036 22.5731C25.716 22.7121 25.5 23.0251 25.5 23.3871V34.6851C25.5 35.5051 26.392 35.8641 26.969 35.3721L29.064 33.6251L30.516 36.9671C30.672 37.3251 31.176 37.6201 31.684 37.4261L33.03 36.8411C33.482 36.6481 33.717 36.1671 33.491 35.6731L32.062 32.3861L34.355 32.1811C35.162 32.1651 35.472 31.2131 34.91 30.6551Z" fill="black"/>
<path d="M34.556 31.009L26.661 23.114C26.537 22.99 26.369 22.974 26.233 23.033C26.102 23.09 26 23.218 26 23.388V34.685C26 35.02 26.391 35.203 26.649 34.989L29.257 32.814L30.975 36.767C31.06 36.963 31.289 37.053 31.485 36.968L32.832 36.382C33.028 36.297 33.118 36.068 33.033 35.872L31.328 31.949L34.312 31.682C34.646 31.652 34.794 31.246 34.556 31.009Z" fill="white"/>
<defs>
<radialGradient id="paint0_radial_197_3625" cx="0" cy="0" r="1" gradientUnits="userSpaceOnUse" gradientTransform="translate(10.062 9.438) scale(40.916)">
<stop stop-color="#6FCEFC"/>
<stop offset="1" stop-color="#167CF7"/>
</radialGradient>
<radialGradient id="paint1_radial_197_3625" cx="0" cy="0" r="1" gradientUnits="userSpaceOnUse" gradientTransform="translate(10.696 8.05) scale(40.918 40.918)">
<stop offset="0.001" stop-color="#54C0F5"/>
<stop offset="0.998" stop-color="#0B69DB"/>
</radialGradient>
</defs>
</svg>
