<svg width="48" height="48" viewBox="0 0 48 48" fill="none" xmlns="http://www.w3.org/2000/svg">
<path d="M39 17.657V41C39 42.105 38.105 43 37 43H11C9.895 43 9 42.105 9 41V7C9 5.895 9.895 5 11 5H26.343C27.404 5 28.421 5.421 29.171 6.172L37.828 14.829C38.579 15.579 39 16.596 39 17.657Z" fill="#199BE2"/>
<path opacity="0.05" d="M17 38H31C32.105 38 33 37.105 33 36V26C33 24.895 32.105 24 31 24H17C15.895 24 15 24.895 15 26V36C15 37.105 15.895 38 17 38Z" fill="black"/>
<path opacity="0.07" d="M17 37.5H31C31.828 37.5 32.5 36.828 32.5 36V26C32.5 25.172 31.828 24.5 31 24.5H17C16.172 24.5 15.5 25.172 15.5 26V36C15.5 36.828 16.172 37.5 17 37.5Z" fill="black"/>
<path d="M31 37H17C16.448 37 16 36.552 16 36V26C16 25.448 16.448 25 17 25H31C31.552 25 32 25.448 32 26V36C32 36.552 31.552 37 31 37Z" fill="#EDBE00"/>
<path d="M22 37H20V35H16V33H20C21.103 33 22 33.897 22 35V37Z" fill="#E3A600"/>
<path d="M32 31V29H29C28.448 29 28 28.552 28 28V25H26V37H28V36C28 35.448 28.448 35 29 35H32V33H29C28.448 33 28 32.552 28 32C28 31.448 28.448 31 29 31H32Z" fill="#E3A600"/>
</svg>
