<svg width="48" height="48" viewBox="0 0 48 48" fill="none" xmlns="http://www.w3.org/2000/svg">
<path d="M42 39C42 40.104 41.104 41 40 41H17C15.896 41 15 40.104 15 39V11C15 9.896 15.896 9 17 9H40C41.104 9 42 9.896 42 11V39Z" fill="url(#paint0_linear_197_3670)"/>
<path d="M22.5 21H25.5C25.776 21 26 21.224 26 21.5V24.5C26 24.776 25.776 25 25.5 25H22.5C22.224 25 22 24.776 22 24.5V21.5C22 21.224 22.224 21 22.5 21ZM28.5 21H31.5C31.776 21 32 21.224 32 21.5V24.5C32 24.776 31.776 25 31.5 25H28.5C28.224 25 28 24.776 28 24.5V21.5C28 21.224 28.224 21 28.5 21ZM34.5 21H37.5C37.776 21 38 21.224 38 21.5V24.5C38 24.776 37.776 25 37.5 25H34.5C34.224 25 34 24.776 34 24.5V21.5C34 21.224 34.224 21 34.5 21ZM22.5 27H25.5C25.776 27 26 27.224 26 27.5V30.5C26 30.776 25.776 31 25.5 31H22.5C22.224 31 22 30.776 22 30.5V27.5C22 27.224 22.224 27 22.5 27ZM28.5 27H31.5C31.776 27 32 27.224 32 27.5V30.5C32 30.776 31.776 31 31.5 31H28.5C28.224 31 28 30.776 28 30.5V27.5C28 27.224 28.224 27 28.5 27ZM34.5 27H37.5C37.776 27 38 27.224 38 27.5V30.5C38 30.776 37.776 31 37.5 31H34.5C34.224 31 34 30.776 34 30.5V27.5C34 27.224 34.224 27 34.5 27ZM22.5 33H25.5C25.776 33 26 33.224 26 33.5V36.5C26 36.776 25.776 37 25.5 37H22.5C22.224 37 22 36.776 22 36.5V33.5C22 33.224 22.224 33 22.5 33ZM28.5 33H31.5C31.776 33 32 33.224 32 33.5V36.5C32 36.776 31.776 37 31.5 37H28.5C28.224 37 28 36.776 28 36.5V33.5C28 33.224 28.224 33 28.5 33ZM34.5 33H37.5C37.776 33 38 33.224 38 33.5V36.5C38 36.776 37.776 37 37.5 37H34.5C34.224 37 34 36.776 34 36.5V33.5C34 33.224 34.224 33 34.5 33Z" fill="#CAD2D9"/>
<path d="M12 6C5.99997 6 5.99997 8 5.99997 9C5.99997 10 5.99997 40 5.99997 41C5.99997 42 5.93097 44 12 44C18.069 44 18 42 18 41C18 40 18 10 18 9C18 8 18 6 12 6Z" fill="url(#paint1_linear_197_3670)"/>
<path d="M37 17H23C22.448 17 22 16.552 22 16V14C22 13.448 22.448 13 23 13H37C37.552 13 38 13.448 38 14V16C38 16.552 37.552 17 37 17Z" fill="url(#paint2_linear_197_3670)"/>
<defs>
<linearGradient id="paint0_linear_197_3670" x1="26.439" y1="8.512" x2="30.43" y2="40.442" gradientUnits="userSpaceOnUse">
<stop stop-color="#0D61A9"/>
<stop offset="1" stop-color="#16528C"/>
</linearGradient>
<linearGradient id="paint1_linear_197_3670" x1="9.29397" y1="6.079" x2="14.683" y2="43.797" gradientUnits="userSpaceOnUse">
<stop stop-color="#199AE0"/>
<stop offset="1" stop-color="#0782D8"/>
</linearGradient>
<linearGradient id="paint2_linear_197_3670" x1="23.944" y1="12.195" x2="37.362" y2="18.41" gradientUnits="userSpaceOnUse">
<stop stop-color="#4FE5FF"/>
<stop offset="1" stop-color="#2EB7ED"/>
</linearGradient>
</defs>
</svg>
