<svg width="48" height="48" viewBox="0 0 48 48" fill="none" xmlns="http://www.w3.org/2000/svg">
<path d="M40 18.0001H4V11.8401C4 10.8001 4.797 9.93411 5.834 9.84711L37.834 7.18011C39 7.08311 40 8.00411 40 9.17411V18.0001Z" fill="url(#paint0_linear_197_3580)"/>
<path d="M28.714 21.572C33.2902 21.572 37 17.8622 37 13.286C37 8.70977 33.2902 5 28.714 5C24.1377 5 20.428 8.70977 20.428 13.286C20.428 17.8622 24.1377 21.572 28.714 21.572Z" fill="#C9D4E0"/>
<path d="M28.714 19.572C32.1856 19.572 35 16.7577 35 13.286C35 9.81434 32.1856 7 28.714 7C25.2423 7 22.428 9.81434 22.428 13.286C22.428 16.7577 25.2423 19.572 28.714 19.572Z" fill="#B2BBC7"/>
<path d="M20.303 13.0369C20.303 15.6109 21.501 17.9009 23.367 19.3919C28.798 19.0109 33.088 14.4959 33.088 8.96888C33.088 7.97388 32.94 7.01588 32.681 6.10388C31.445 5.34588 29.996 4.90088 28.439 4.90088C23.945 4.90088 20.303 8.54288 20.303 13.0369Z" fill="url(#paint1_radial_197_3580)"/>
<path d="M22.5 19C27.7467 19 32 14.7467 32 9.5C32 4.25329 27.7467 0 22.5 0C17.2533 0 13 4.25329 13 9.5C13 14.7467 17.2533 19 22.5 19Z" fill="url(#paint2_linear_197_3580)"/>
<path d="M22.5 17C26.6421 17 30 13.6421 30 9.5C30 5.35786 26.6421 2 22.5 2C18.3579 2 15 5.35786 15 9.5C15 13.6421 18.3579 17 22.5 17Z" fill="#F5BE00"/>
<path opacity="0.05" d="M22.5 19C22.572 19 22.642 18.991 22.714 18.989C24.223 20.577 26.351 21.571 28.714 21.571C33.29 21.571 37 17.861 37 13.285C37 13.189 36.991 13.095 36.988 12.999H13.674C15.069 16.513 18.491 19 22.5 19Z" fill="black"/>
<path d="M20.33 11.7271V10.4261C20.802 10.7151 21.305 10.8601 21.838 10.8601C22.239 10.8601 22.554 10.7651 22.78 10.5741C23.006 10.3831 23.12 10.1231 23.12 9.79607C23.12 9.11207 22.637 8.77007 21.67 8.77007C21.355 8.77007 20.975 8.79907 20.528 8.85707V4.99707H24.353V6.24007H21.828V7.62307C22.03 7.60407 22.221 7.59407 22.401 7.59407C23.111 7.59407 23.666 7.78107 24.068 8.15207C24.469 8.52507 24.67 9.02607 24.67 9.65607C24.67 10.3521 24.431 10.9221 23.952 11.3641C23.474 11.8061 22.825 12.0271 22.005 12.0271C21.342 12.0261 20.783 11.9271 20.33 11.7271Z" fill="#FEE119"/>
<path opacity="0.07" d="M13.892 13.5C15.403 16.745 18.684 19 22.5 19C22.572 19 22.642 18.991 22.714 18.989C24.223 20.577 26.351 21.571 28.714 21.571C33.218 21.571 36.874 17.976 36.989 13.5H13.892Z" fill="black"/>
<path d="M42 42H6C4.895 42 4 41.105 4 40V12C4 13.105 4.895 14 6 14H42C43.105 14 44 14.895 44 16V40C44 41.105 43.105 42 42 42Z" fill="url(#paint3_linear_197_3580)"/>
<path opacity="0.3" d="M38 30C39.6569 30 41 28.6569 41 27C41 25.3431 39.6569 24 38 24C36.3431 24 35 25.3431 35 27C35 28.6569 36.3431 30 38 30Z" fill="url(#paint4_radial_197_3580)"/>
<path d="M38 25C36.895 25 36 25.895 36 27C36 28.105 36.895 29 38 29C39.105 29 40 28.105 40 27C40 25.895 39.105 25 38 25Z" fill="white"/>
<defs>
<linearGradient id="paint0_linear_197_3580" x1="21.87" y1="8.03911" x2="22.189" y2="21.6711" gradientUnits="userSpaceOnUse">
<stop offset="0.056" stop-color="#D94A23"/>
<stop offset="0.175" stop-color="#CF4621"/>
<stop offset="0.38" stop-color="#B33D1D"/>
<stop offset="0.646" stop-color="#862D16"/>
<stop offset="0.96" stop-color="#48180C"/>
<stop offset="1" stop-color="#40150B"/>
</linearGradient>
<radialGradient id="paint1_radial_197_3580" cx="0" cy="0" r="1" gradientUnits="userSpaceOnUse" gradientTransform="translate(22.565 8.86688) scale(10.461)">
<stop/>
<stop offset="1" stop-opacity="0"/>
</radialGradient>
<linearGradient id="paint2_linear_197_3580" x1="15.979" y1="2.979" x2="29.203" y2="16.203" gradientUnits="userSpaceOnUse">
<stop stop-color="#FEDE00"/>
<stop offset="1" stop-color="#FFD000"/>
</linearGradient>
<linearGradient id="paint3_linear_197_3580" x1="19.79" y1="7.703" x2="27.013" y2="42.526" gradientUnits="userSpaceOnUse">
<stop stop-color="#FC7D5B"/>
<stop offset="0.142" stop-color="#FA7753"/>
<stop offset="1" stop-color="#ED5328"/>
</linearGradient>
<radialGradient id="paint4_radial_197_3580" cx="0" cy="0" r="1" gradientUnits="userSpaceOnUse" gradientTransform="translate(38 27) scale(3)">
<stop/>
<stop offset="1" stop-opacity="0"/>
</radialGradient>
</defs>
</svg>
