<svg width="24" height="24" viewBox="0 0 24 24" fill="none" xmlns="http://www.w3.org/2000/svg">
<g clip-path="url(#clip0_3_477)">
<path opacity="0.07" d="M10.3087 5.24987C10.2572 5.24987 10.2052 5.23387 10.1617 5.20187L9.99973 5.08437L9.83773 5.20187C9.75023 5.26587 9.63123 5.26587 9.54373 5.20187C9.45623 5.13837 9.41923 5.02537 9.45273 4.92237L9.51473 4.73187L9.35273 4.61387C9.26523 4.55037 9.22823 4.43737 9.26173 4.33437C9.29523 4.23187 9.39123 4.16187 9.49973 4.16187H9.70023L9.76223 3.97137C9.82923 3.76537 10.1707 3.76537 10.2377 3.97137L10.2997 4.16187H10.4997C10.6082 4.16187 10.7042 4.23187 10.7377 4.33487C10.7712 4.43787 10.7347 4.55087 10.6467 4.61437L10.4847 4.73187L10.5467 4.92237C10.5802 5.02537 10.5437 5.13837 10.4557 5.20187C10.4122 5.23387 10.3602 5.24987 10.3087 5.24987Z" fill="black"/>
<path opacity="0.07" d="M10.3087 6.70108C10.2572 6.70108 10.2052 6.68508 10.1617 6.65308L9.99973 6.53558L9.83773 6.65308C9.75023 6.71708 9.63123 6.71708 9.54373 6.65308C9.45623 6.58958 9.41923 6.47658 9.45273 6.37358L9.51473 6.18308L9.35273 6.06508C9.26523 6.00158 9.22823 5.88858 9.26173 5.78558C9.29523 5.68258 9.39123 5.61258 9.49973 5.61258H9.70023L9.76223 5.42208C9.82923 5.21608 10.1707 5.21608 10.2377 5.42208L10.2997 5.61258H10.4997C10.6082 5.61258 10.7042 5.68258 10.7377 5.78558C10.7712 5.88858 10.7347 6.00158 10.6467 6.06508L10.4847 6.18308L10.5467 6.37358C10.5802 6.47658 10.5437 6.58958 10.4557 6.65308C10.4122 6.68558 10.3602 6.70108 10.3087 6.70108Z" fill="black"/>
<path opacity="0.07" d="M10.3087 8.20108C10.2572 8.20108 10.2052 8.18508 10.1617 8.15308L9.99973 8.03558L9.83773 8.15308C9.75023 8.21708 9.63123 8.21708 9.54373 8.15308C9.45623 8.08958 9.41923 7.97658 9.45273 7.87358L9.51473 7.68308L9.35273 7.56508C9.26523 7.50158 9.22823 7.38858 9.26173 7.28558C9.29523 7.18258 9.39123 7.11258 9.49973 7.11258H9.70023L9.76223 6.92208C9.82923 6.71608 10.1707 6.71608 10.2377 6.92208L10.2997 7.11258H10.4997C10.6082 7.11258 10.7042 7.18258 10.7377 7.28558C10.7712 7.38858 10.7347 7.50158 10.6467 7.56508L10.4847 7.68308L10.5467 7.87358C10.5802 7.97658 10.5437 8.08958 10.4557 8.15308C10.4122 8.18558 10.3602 8.20108 10.3087 8.20108Z" fill="black"/>
<path opacity="0.07" d="M11.8087 5.24987C11.7572 5.24987 11.7052 5.23387 11.6617 5.20187L11.4997 5.08437L11.3377 5.20187C11.2502 5.26587 11.1312 5.26587 11.0437 5.20187C10.9562 5.13837 10.9192 5.02537 10.9527 4.92237L11.0147 4.73187L10.8527 4.61387C10.7652 4.55037 10.7282 4.43737 10.7617 4.33437C10.7952 4.23187 10.8912 4.16187 10.9997 4.16187H11.2002L11.2622 3.97137C11.3292 3.76537 11.6707 3.76537 11.7377 3.97137L11.7997 4.16187H11.9997C12.1082 4.16187 12.2042 4.23187 12.2377 4.33487C12.2712 4.43787 12.2347 4.55087 12.1467 4.61437L11.9847 4.73187L12.0467 4.92237C12.0802 5.02537 12.0437 5.13837 11.9557 5.20187C11.9122 5.23387 11.8602 5.24987 11.8087 5.24987Z" fill="black"/>
<path opacity="0.07" d="M11.8087 6.70108C11.7572 6.70108 11.7052 6.68508 11.6617 6.65308L11.4997 6.53558L11.3377 6.65308C11.2502 6.71708 11.1312 6.71708 11.0437 6.65308C10.9562 6.58958 10.9192 6.47658 10.9527 6.37358L11.0147 6.18308L10.8527 6.06508C10.7652 6.00158 10.7282 5.88858 10.7617 5.78558C10.7952 5.68258 10.8912 5.61258 10.9997 5.61258H11.2002L11.2622 5.42208C11.3292 5.21608 11.6707 5.21608 11.7377 5.42208L11.7997 5.61258H11.9997C12.1082 5.61258 12.2042 5.68258 12.2377 5.78558C12.2712 5.88858 12.2347 6.00158 12.1467 6.06508L11.9847 6.18308L12.0467 6.37358C12.0802 6.47658 12.0437 6.58958 11.9557 6.65308C11.9122 6.68558 11.8602 6.70108 11.8087 6.70108Z" fill="black"/>
<path opacity="0.07" d="M11.8087 8.20108C11.7572 8.20108 11.7052 8.18508 11.6617 8.15308L11.4997 8.03558L11.3377 8.15308C11.2502 8.21708 11.1312 8.21708 11.0437 8.15308C10.9562 8.08958 10.9192 7.97658 10.9527 7.87358L11.0147 7.68308L10.8527 7.56508C10.7652 7.50158 10.7282 7.38858 10.7617 7.28558C10.7952 7.18258 10.8912 7.11258 10.9997 7.11258H11.2002L11.2622 6.92208C11.3292 6.71608 11.6707 6.71608 11.7377 6.92208L11.7997 7.11258H11.9997C12.1082 7.11258 12.2042 7.18258 12.2377 7.28558C12.2712 7.38858 12.2347 7.50158 12.1467 7.56508L11.9847 7.68308L12.0467 7.87358C12.0802 7.97658 12.0437 8.08958 11.9557 8.15308C11.9122 8.18558 11.8602 8.20108 11.8087 8.20108Z" fill="black"/>
<path opacity="0.07" d="M13.3087 5.24987C13.2572 5.24987 13.2052 5.23387 13.1617 5.20187L12.9997 5.08437L12.8377 5.20187C12.7502 5.26587 12.6312 5.26587 12.5437 5.20187C12.4562 5.13837 12.4192 5.02537 12.4527 4.92237L12.5147 4.73187L12.3527 4.61387C12.2652 4.55037 12.2282 4.43737 12.2617 4.33437C12.2952 4.23187 12.3912 4.16187 12.4997 4.16187H12.7002L12.7622 3.97137C12.8292 3.76537 13.1707 3.76537 13.2377 3.97137L13.2997 4.16187H13.4997C13.6082 4.16187 13.7042 4.23187 13.7377 4.33487C13.7712 4.43787 13.7347 4.55087 13.6467 4.61437L13.4847 4.73187L13.5467 4.92237C13.5802 5.02537 13.5437 5.13837 13.4557 5.20187C13.4122 5.23387 13.3602 5.24987 13.3087 5.24987Z" fill="black"/>
<path opacity="0.07" d="M13.3087 6.70108C13.2572 6.70108 13.2052 6.68508 13.1617 6.65308L12.9997 6.53558L12.8377 6.65308C12.7502 6.71708 12.6312 6.71708 12.5437 6.65308C12.4562 6.58958 12.4192 6.47658 12.4527 6.37358L12.5147 6.18308L12.3527 6.06508C12.2652 6.00158 12.2282 5.88858 12.2617 5.78558C12.2952 5.68258 12.3912 5.61258 12.4997 5.61258H12.7002L12.7622 5.42208C12.8292 5.21608 13.1707 5.21608 13.2377 5.42208L13.2997 5.61258H13.4997C13.6082 5.61258 13.7042 5.68258 13.7377 5.78558C13.7712 5.88858 13.7347 6.00158 13.6467 6.06508L13.4847 6.18308L13.5467 6.37358C13.5802 6.47658 13.5437 6.58958 13.4557 6.65308C13.4122 6.68558 13.3602 6.70108 13.3087 6.70108Z" fill="black"/>
<path opacity="0.07" d="M13.3087 8.20108C13.2572 8.20108 13.2052 8.18508 13.1617 8.15308L12.9997 8.03558L12.8377 8.15308C12.7502 8.21708 12.6312 8.21708 12.5437 8.15308C12.4562 8.08958 12.4192 7.97658 12.4527 7.87358L12.5147 7.68308L12.3527 7.56508C12.2652 7.50158 12.2282 7.38858 12.2617 7.28558C12.2952 7.18258 12.3912 7.11258 12.4997 7.11258H12.7002L12.7622 6.92208C12.8292 6.71608 13.1707 6.71608 13.2377 6.92208L13.2997 7.11258H13.4997C13.6082 7.11258 13.7042 7.18258 13.7377 7.28558C13.7712 7.38858 13.7347 7.50158 13.6467 7.56508L13.4847 7.68308L13.5467 7.87358C13.5802 7.97658 13.5437 8.08958 13.4557 8.15308C13.4122 8.18558 13.3602 8.20108 13.3087 8.20108Z" fill="black"/>
<path opacity="0.07" d="M8.80873 6.70108C8.75723 6.70108 8.70523 6.68508 8.66173 6.65308L8.49973 6.53558L8.33773 6.65308C8.25023 6.71708 8.13123 6.71708 8.04373 6.65308C7.95623 6.58958 7.91923 6.47658 7.95273 6.37358L8.01473 6.18308L7.85273 6.06508C7.76523 6.00158 7.72823 5.88858 7.76173 5.78558C7.79523 5.68258 7.89123 5.61258 7.99973 5.61258H8.20023L8.26223 5.42208C8.32923 5.21608 8.67073 5.21608 8.73773 5.42208L8.79973 5.61258H8.99973C9.10823 5.61258 9.20423 5.68258 9.23773 5.78558C9.27123 5.88858 9.23473 6.00158 9.14673 6.06508L8.98473 6.18308L9.04673 6.37358C9.08023 6.47658 9.04373 6.58958 8.95573 6.65308C8.91223 6.68558 8.86023 6.70108 8.80873 6.70108Z" fill="black"/>
<path opacity="0.07" d="M8.80873 8.20108C8.75723 8.20108 8.70523 8.18508 8.66173 8.15308L8.49973 8.03558L8.33773 8.15308C8.25023 8.21708 8.13123 8.21708 8.04373 8.15308C7.95623 8.08958 7.91923 7.97658 7.95273 7.87358L8.01473 7.68308L7.85273 7.56508C7.76523 7.50158 7.72823 7.38858 7.76173 7.28558C7.79523 7.18258 7.89123 7.11258 7.99973 7.11258H8.20023L8.26223 6.92208C8.32923 6.71608 8.67073 6.71608 8.73773 6.92208L8.79973 7.11258H8.99973C9.10823 7.11258 9.20423 7.18258 9.23773 7.28558C9.27123 7.38858 9.23473 7.50158 9.14673 7.56508L8.98473 7.68308L9.04673 7.87358C9.08023 7.97658 9.04373 8.08958 8.95573 8.15308C8.91223 8.18558 8.86023 8.20108 8.80873 8.20108Z" fill="black"/>
<path opacity="0.07" d="M7.30873 8.20108C7.25723 8.20108 7.20523 8.18508 7.16173 8.15308L6.99973 8.03558L6.83773 8.15308C6.75023 8.21708 6.63123 8.21708 6.54373 8.15308C6.45623 8.08958 6.41923 7.97658 6.45273 7.87358L6.51473 7.68308L6.35273 7.56508C6.26523 7.50158 6.22823 7.38858 6.26173 7.28558C6.29523 7.18258 6.39123 7.11258 6.49973 7.11258H6.70023L6.76223 6.92208C6.82923 6.71608 7.17073 6.71608 7.23773 6.92208L7.29973 7.11258H7.49973C7.60823 7.11258 7.70423 7.18258 7.73773 7.28558C7.77123 7.38858 7.73473 7.50158 7.64673 7.56508L7.48473 7.68308L7.54673 7.87358C7.58023 7.97658 7.54373 8.08958 7.45573 8.15308C7.41223 8.18558 7.36023 8.20108 7.30873 8.20108Z" fill="black"/>
<path d="M24 3.50011H0V9.00011H24V3.50011Z" fill="url(#paint0_linear_3_477)"/>
<path d="M24 15H0V20.5H24V15Z" fill="url(#paint1_linear_3_477)"/>
<path d="M24 9H0V14.5H24V9Z" fill="url(#paint2_linear_3_477)"/>
<path d="M0 8.48403V11V12.5V15.5H24V12.5V11V8.48403H0Z" fill="url(#paint3_linear_3_477)"/>
<path d="M24 9.50011H0V14.5001H24V9.50011Z" fill="url(#paint4_linear_3_477)"/>
<path d="M5.04357 7.76438C4.06907 7.76438 3.27907 6.97438 3.27907 5.99988C3.27907 5.02538 4.06907 4.23538 5.04357 4.23538C5.20207 4.23538 5.35457 4.25789 5.50057 4.29739C5.19607 4.10989 4.83907 3.99989 4.45557 3.99989C3.35107 3.99989 2.45557 4.89538 2.45557 5.99988C2.45557 7.10438 3.35107 7.99988 4.45557 7.99988C4.83907 7.99988 5.19657 7.88988 5.50057 7.70288C5.35457 7.74188 5.20207 7.76438 5.04357 7.76438Z" fill="white"/>
<path d="M10.0005 4.04883L10.1185 4.41183H10.5005L10.1915 4.63633L10.3095 4.99983L10.0005 4.77533L9.69149 4.99983L9.80949 4.63633L9.50049 4.41183H9.88249L10.0005 4.04883Z" fill="white"/>
<path d="M10.0005 5.49989L10.1185 5.86339H10.5005L10.1915 6.08789L10.3095 6.45089L10.0005 6.22639L9.69149 6.45089L9.80949 6.08789L9.50049 5.86339H9.88249L10.0005 5.49989Z" fill="white"/>
<path d="M10.0005 6.99989L10.1185 7.36339H10.5005L10.1915 7.58789L10.3095 7.95089L10.0005 7.72639L9.69149 7.95089L9.80949 7.58789L9.50049 7.36339H9.88249L10.0005 6.99989Z" fill="white"/>
<path d="M11.5005 4.04883L11.6185 4.41183H12.0005L11.6915 4.63633L11.8095 4.99983L11.5005 4.77533L11.1915 4.99983L11.3095 4.63633L11.0005 4.41183H11.3825L11.5005 4.04883Z" fill="white"/>
<path d="M11.5005 5.49989L11.6185 5.86339H12.0005L11.6915 6.08789L11.8095 6.45089L11.5005 6.22639L11.1915 6.45089L11.3095 6.08789L11.0005 5.86339H11.3825L11.5005 5.49989Z" fill="white"/>
<path d="M11.5005 6.99989L11.6185 7.36339H12.0005L11.6915 7.58789L11.8095 7.95089L11.5005 7.72639L11.1915 7.95089L11.3095 7.58789L11.0005 7.36339H11.3825L11.5005 6.99989Z" fill="white"/>
<path d="M13.0005 4.04883L13.1185 4.41183H13.5005L13.1915 4.63633L13.3095 4.99983L13.0005 4.77533L12.6915 4.99983L12.8095 4.63633L12.5005 4.41183H12.8825L13.0005 4.04883Z" fill="white"/>
<path d="M13.0005 5.49989L13.1185 5.86339H13.5005L13.1915 6.08789L13.3095 6.45089L13.0005 6.22639L12.6915 6.45089L12.8095 6.08789L12.5005 5.86339H12.8825L13.0005 5.49989Z" fill="white"/>
<path d="M13.0005 6.99989L13.1185 7.36339H13.5005L13.1915 7.58789L13.3095 7.95089L13.0005 7.72639L12.6915 7.95089L12.8095 7.58789L12.5005 7.36339H12.8825L13.0005 6.99989Z" fill="white"/>
<path d="M8.50049 5.49989L8.61849 5.86339H9.00049L8.69149 6.08789L8.80949 6.45089L8.50049 6.22639L8.19149 6.45089L8.30949 6.08789L8.00049 5.86339H8.38249L8.50049 5.49989Z" fill="white"/>
<path d="M8.50049 6.99989L8.61849 7.36339H9.00049L8.69149 7.58789L8.80949 7.95089L8.50049 7.72639L8.19149 7.95089L8.30949 7.58789L8.00049 7.36339H8.38249L8.50049 6.99989Z" fill="white"/>
<path d="M7.00049 6.99989L7.11849 7.36339H7.50049L7.19149 7.58789L7.30949 7.95089L7.00049 7.72639L6.69149 7.95089L6.80949 7.58789L6.50049 7.36339H6.88249L7.00049 6.99989Z" fill="white"/>
<path d="M5.04357 7.76438C4.06907 7.76438 3.27907 6.97438 3.27907 5.99988C3.27907 5.02538 4.06907 4.23538 5.04357 4.23538C5.20207 4.23538 5.35457 4.25789 5.50057 4.29739C5.19607 4.10989 4.83907 3.99989 4.45557 3.99989C3.35107 3.99989 2.45557 4.89538 2.45557 5.99988C2.45557 7.10438 3.35107 7.99988 4.45557 7.99988C4.83907 7.99988 5.19657 7.88988 5.50057 7.70288C5.35457 7.74188 5.20207 7.76438 5.04357 7.76438Z" fill="white"/>
<path d="M10.0005 4.04883L10.1185 4.41183H10.5005L10.1915 4.63633L10.3095 4.99983L10.0005 4.77533L9.69149 4.99983L9.80949 4.63633L9.50049 4.41183H9.88249L10.0005 4.04883Z" fill="white"/>
<path d="M10.0005 5.49989L10.1185 5.86339H10.5005L10.1915 6.08789L10.3095 6.45089L10.0005 6.22639L9.69149 6.45089L9.80949 6.08789L9.50049 5.86339H9.88249L10.0005 5.49989Z" fill="white"/>
<path d="M10.0005 6.99989L10.1185 7.36339H10.5005L10.1915 7.58789L10.3095 7.95089L10.0005 7.72639L9.69149 7.95089L9.80949 7.58789L9.50049 7.36339H9.88249L10.0005 6.99989Z" fill="white"/>
<path d="M11.5005 4.04883L11.6185 4.41183H12.0005L11.6915 4.63633L11.8095 4.99983L11.5005 4.77533L11.1915 4.99983L11.3095 4.63633L11.0005 4.41183H11.3825L11.5005 4.04883Z" fill="white"/>
<path d="M11.5005 5.49989L11.6185 5.86339H12.0005L11.6915 6.08789L11.8095 6.45089L11.5005 6.22639L11.1915 6.45089L11.3095 6.08789L11.0005 5.86339H11.3825L11.5005 5.49989Z" fill="white"/>
<path d="M11.5005 6.99989L11.6185 7.36339H12.0005L11.6915 7.58789L11.8095 7.95089L11.5005 7.72639L11.1915 7.95089L11.3095 7.58789L11.0005 7.36339H11.3825L11.5005 6.99989Z" fill="white"/>
<path d="M13.0005 4.04883L13.1185 4.41183H13.5005L13.1915 4.63633L13.3095 4.99983L13.0005 4.77533L12.6915 4.99983L12.8095 4.63633L12.5005 4.41183H12.8825L13.0005 4.04883Z" fill="white"/>
<path d="M13.0005 5.49989L13.1185 5.86339H13.5005L13.1915 6.08789L13.3095 6.45089L13.0005 6.22639L12.6915 6.45089L12.8095 6.08789L12.5005 5.86339H12.8825L13.0005 5.49989Z" fill="white"/>
<path d="M13.0005 6.99989L13.1185 7.36339H13.5005L13.1915 7.58789L13.3095 7.95089L13.0005 7.72639L12.6915 7.95089L12.8095 7.58789L12.5005 7.36339H12.8825L13.0005 6.99989Z" fill="white"/>
<path d="M8.50049 5.49989L8.61849 5.86339H9.00049L8.69149 6.08789L8.80949 6.45089L8.50049 6.22639L8.19149 6.45089L8.30949 6.08789L8.00049 5.86339H8.38249L8.50049 5.49989Z" fill="white"/>
<path d="M8.50049 6.99989L8.61849 7.36339H9.00049L8.69149 7.58789L8.80949 7.95089L8.50049 7.72639L8.19149 7.95089L8.30949 7.58789L8.00049 7.36339H8.38249L8.50049 6.99989Z" fill="white"/>
<path d="M7.00049 6.99989L7.11849 7.36339H7.50049L7.19149 7.58789L7.30949 7.95089L7.00049 7.72639L6.69149 7.95089L6.80949 7.58789L6.50049 7.36339H6.88249L7.00049 6.99989Z" fill="white"/>
</g>
<defs>
<linearGradient id="paint0_linear_3_477" x1="12" y1="3.50961" x2="12" y2="8.59811" gradientUnits="userSpaceOnUse">
<stop stop-color="#00B6CE"/>
<stop offset="0.371" stop-color="#00B2CB"/>
<stop offset="0.722" stop-color="#00A7C1"/>
<stop offset="1" stop-color="#0098B5"/>
</linearGradient>
<linearGradient id="paint1_linear_3_477" x1="12" y1="20.7465" x2="12" y2="15.746" gradientUnits="userSpaceOnUse">
<stop stop-color="#21AD64"/>
<stop offset="0.38" stop-color="#1DA960"/>
<stop offset="0.787" stop-color="#129E53"/>
<stop offset="1" stop-color="#099649"/>
</linearGradient>
<linearGradient id="paint2_linear_3_477" x1="0" y1="11.75" x2="24" y2="11.75" gradientUnits="userSpaceOnUse">
<stop stop-color="#DFE9F2"/>
<stop offset="0.391" stop-color="#D6E0E9"/>
<stop offset="1" stop-color="#BFC8D1"/>
</linearGradient>
<linearGradient id="paint3_linear_3_477" x1="12" y1="8.48403" x2="12" y2="15.4885" gradientUnits="userSpaceOnUse">
<stop stop-color="#F44F5A"/>
<stop offset="0.045" stop-color="#F14652"/>
<stop offset="0.183" stop-color="#EA313F"/>
<stop offset="0.317" stop-color="#E62434"/>
<stop offset="0.443" stop-color="#E52030"/>
<stop offset="0.647" stop-color="#E62332"/>
<stop offset="0.783" stop-color="#E92C3A"/>
<stop offset="0.899" stop-color="#ED3B48"/>
<stop offset="1" stop-color="#F44F5A"/>
</linearGradient>
<linearGradient id="paint4_linear_3_477" x1="12" y1="9.39811" x2="12" y2="14.5456" gradientUnits="userSpaceOnUse">
<stop stop-color="#DFE9F2"/>
<stop offset="1" stop-color="#BFC8D1"/>
</linearGradient>
<clipPath id="clip0_3_477">
<rect width="24" height="24" fill="white"/>
</clipPath>
</defs>
</svg>
