<svg width="30" height="30" viewBox="0 0 30 30" fill="none" xmlns="http://www.w3.org/2000/svg">
<path d="M26.25 5H3.75C3.05937 5 2.5 5.55937 2.5 6.25V22.5C2.5 23.1906 3.05937 23.75 3.75 23.75H8.75V28.7488C8.75 29.3056 9.42312 29.5844 9.81687 29.1906L15.2575 23.75H26.25C26.9406 23.75 27.5 23.1906 27.5 22.5V6.25C27.5 5.55937 26.9406 5 26.25 5Z" fill="url(#paint0_linear_127_2501)"/>
<path opacity="0.05" d="M13.75 21.25H16.25C16.595 21.25 16.875 20.97 16.875 20.625V13.125C16.875 12.78 16.595 12.5 16.25 12.5H13.75C13.405 12.5 13.125 12.78 13.125 13.125V20.625C13.125 20.97 13.405 21.25 13.75 21.25Z" fill="black"/>
<path opacity="0.07" d="M13.8919 20.9375H16.1088C16.3594 20.9375 16.5631 20.7344 16.5631 20.4831V13.2669C16.5631 13.0162 16.36 12.8125 16.1088 12.8125H13.8919C13.6412 12.8125 13.4375 13.0156 13.4375 13.2669V20.4837C13.4375 20.7344 13.6406 20.9375 13.8919 20.9375Z" fill="black"/>
<path opacity="0.15" d="M15.0001 11.8819C16.3766 11.8819 17.4926 10.872 17.4926 9.62623C17.4926 8.38048 16.3766 7.37061 15.0001 7.37061C13.6235 7.37061 12.5076 8.38048 12.5076 9.62623C12.5076 10.872 13.6235 11.8819 15.0001 11.8819Z" fill="url(#paint1_radial_127_2501)"/>
<path d="M14.999 11.0825C16.0615 11.0825 16.6553 10.415 16.6553 9.59C16.6553 8.765 16.0284 8.125 14.999 8.125C13.9696 8.125 13.3428 8.765 13.3428 9.59C13.3428 10.415 13.9365 11.0825 14.999 11.0825Z" fill="white"/>
<path d="M16.25 13.125H13.75V20.625H16.25V13.125Z" fill="white"/>
<defs>
<linearGradient id="paint0_linear_127_2501" x1="3.48583" y1="5.53564" x2="17.6293" y2="32.3016" gradientUnits="userSpaceOnUse">
<stop stop-color="#3554D1"/>
<stop offset="1" stop-color="#1E3CA5"/>
</linearGradient>
<radialGradient id="paint1_radial_127_2501" cx="0" cy="0" r="1" gradientUnits="userSpaceOnUse" gradientTransform="translate(15.0005 9.62537) scale(2.4927 2.25582)">
<stop offset="0.516"/>
<stop offset="1" stop-opacity="0"/>
</radialGradient>
</defs>
</svg>
