<svg width="30" height="30" viewBox="0 0 30 30" fill="none" xmlns="http://www.w3.org/2000/svg">
<path d="M23.125 2.5H6.875C6.18437 2.5 5.625 3.05937 5.625 3.75V26.25C5.625 26.9406 6.18437 27.5 6.875 27.5H23.125C23.8156 27.5 24.375 26.9406 24.375 26.25V3.75C24.375 3.05937 23.8156 2.5 23.125 2.5Z" fill="url(#paint0_linear_127_2515)"/>
<path opacity="0.05" d="M24.375 10.5368L22.7588 8.92055C21.9713 8.13305 20.625 8.69117 20.625 9.80492V11.8749H13.125C12.4344 11.8749 11.875 12.4343 11.875 13.1249V16.8749C11.875 17.5655 12.4344 18.1249 13.125 18.1249H20.625V20.1949C20.625 21.3087 21.9713 21.8662 22.7588 21.0787L24.375 19.463V10.5368Z" fill="#3554D1"/>
<path opacity="0.07" d="M24.375 11.1619L22.7481 9.53503C22.195 8.98191 21.25 9.37378 21.25 10.1557V12.5H13.4375C12.92 12.5 12.5 12.92 12.5 13.4375V16.5625C12.5 17.08 12.92 17.5 13.4375 17.5H21.25V19.8444C21.25 20.6263 22.195 21.0175 22.7481 20.465L24.375 18.8382V11.1619Z" fill="#3554D1"/>
<path d="M21.875 10.5061V13.1248H13.75C13.405 13.1248 13.125 13.4048 13.125 13.7498V16.2498C13.125 16.5948 13.405 16.8748 13.75 16.8748H21.875V19.4936C21.875 19.9436 22.4188 20.1686 22.7369 19.8505L26.925 15.6623C27.2913 15.2961 27.2913 14.7023 26.925 14.3367L22.7369 10.1486C22.4188 9.83047 21.875 10.0561 21.875 10.5061Z" fill="#6B88FE"/>
<defs>
<linearGradient id="paint0_linear_127_2515" x1="6.36437" y1="3.04938" x2="23.0356" y2="26.12" gradientUnits="userSpaceOnUse">
<stop stop-color="#3554D1"/>
<stop offset="1" stop-color="#1E3CA5"/>
</linearGradient>
</defs>
</svg>
