<svg width="31" height="30" viewBox="0 0 31 30" fill="none" xmlns="http://www.w3.org/2000/svg">
<path d="M10.5 12.5H25.5C26.1906 12.5 26.75 13.0594 26.75 13.75V22.5C26.75 23.1906 26.1906 23.75 25.5 23.75H24.875V27.5513C24.875 27.8969 24.4225 28.0263 24.24 27.7331L21.75 23.75H10.5C9.80937 23.75 9.25 23.1906 9.25 22.5V13.75C9.25 13.0594 9.80937 12.5 10.5 12.5Z" fill="url(#paint0_linear_1_112)"/>
<path d="M20.2421 20.625H19.4664C19.3314 20.625 19.2121 20.5375 19.1708 20.4088L18.8839 19.5125H17.1058L16.8221 20.4081C16.7814 20.5375 16.6614 20.625 16.5264 20.625H15.7602C15.6502 20.625 15.5733 20.5156 15.6108 20.4119L17.2783 15.8306C17.3233 15.7069 17.4408 15.625 17.5721 15.625H18.4683C18.6008 15.625 18.7183 15.7081 18.7627 15.8331L20.3914 20.4131C20.4283 20.5163 20.3521 20.625 20.2421 20.625ZM18.6258 18.6481C18.6258 18.6481 18.0214 16.6919 18.0052 16.5175H17.9771C17.9652 16.6637 17.3458 18.6481 17.3458 18.6481H18.6258Z" fill="white"/>
<path opacity="0.05" d="M21.125 15.625H9.25V12.5H22.375V14.375C22.375 15.0656 21.8156 15.625 21.125 15.625Z" fill="black"/>
<path opacity="0.07" d="M20.8125 15.3125H9.25V12.5H22.0625V14.0625C22.0625 14.7531 21.5031 15.3125 20.8125 15.3125Z" fill="black"/>
<path d="M20.5 3.75H5.5C4.80937 3.75 4.25 4.30938 4.25 5V13.75C4.25 14.4406 4.80937 15 5.5 15H6.125V18.9106C6.125 19.2244 6.53625 19.3425 6.7025 19.0763L9.25 15H20.5C21.1906 15 21.75 14.4406 21.75 13.75V5C21.75 4.30938 21.1906 3.75 20.5 3.75Z" fill="url(#paint1_linear_1_112)"/>
<path d="M13.9676 11.325C14.682 12.14 15.4995 12.0413 15.827 11.9563C15.8951 11.9388 15.9601 11.9907 15.9601 12.0607V12.7957C15.9601 12.8644 15.9145 12.9238 15.847 12.9382C15.7089 12.9688 15.467 13.0088 15.1326 13.0088C13.9226 13.0088 13.1489 11.8207 12.8107 11.5038C11.6132 11.5038 10.4301 10.5538 10.4301 8.86692C10.4301 6.92379 11.727 6.08379 13.0707 6.08379C15.0339 6.08379 15.5757 7.64629 15.5757 8.76067C15.5757 10.4938 14.5076 11.1525 13.9676 11.325ZM13.0301 7.10254C12.3114 7.10254 11.6751 7.65629 11.6751 8.80567C11.6751 9.99192 12.312 10.4938 13.0007 10.4938C13.7245 10.4938 14.3301 9.99567 14.3301 8.82754C14.3301 7.62629 13.7495 7.10254 13.0301 7.10254Z" fill="white"/>
<defs>
<linearGradient id="paint0_linear_1_112" x1="9.94008" y1="12.8383" x2="18.3414" y2="30.4589" gradientUnits="userSpaceOnUse">
<stop stop-color="#3554D1"/>
<stop offset="1" stop-color="#1E3CA5"/>
</linearGradient>
<linearGradient id="paint1_linear_1_112" x1="8.11063" y1="2.34312" x2="17.1706" y2="17.0844" gradientUnits="userSpaceOnUse">
<stop stop-color="#33BEF0"/>
<stop offset="1" stop-color="#22A5E2"/>
</linearGradient>
</defs>
</svg>
