<svg width="19" height="18" viewBox="0 0 19 18" fill="none" xmlns="http://www.w3.org/2000/svg">
<path d="M1.21563 9.53437L5.15313 13.4719C5.29709 13.6095 5.48834 13.6867 5.6875 13.6875C5.78407 13.6878 5.87971 13.6686 5.96875 13.6312C6.10701 13.5753 6.22545 13.4794 6.30894 13.3559C6.39244 13.2323 6.4372 13.0866 6.4375 12.9375V9.75H12.25C12.4489 9.75 12.6397 9.67098 12.7803 9.53033C12.921 9.38968 13 9.19891 13 9C13 8.80109 12.921 8.61032 12.7803 8.46967C12.6397 8.32902 12.4489 8.25 12.25 8.25H6.4375V5.0625C6.4372 4.91336 6.39244 4.7677 6.30894 4.64413C6.22545 4.52055 6.10701 4.42468 5.96875 4.36875C5.83182 4.31436 5.68215 4.30047 5.53755 4.32872C5.39294 4.35698 5.25951 4.42619 5.15313 4.52813L1.21563 8.46563C1.07479 8.60782 0.995781 8.79986 0.995781 9C0.995781 9.20014 1.07479 9.39218 1.21563 9.53437ZM12.25 16.5H17.5V1.5H12.25C12.0511 1.5 11.8603 1.42098 11.7197 1.28033C11.579 1.13968 11.5 0.948912 11.5 0.75C11.5 0.551088 11.579 0.360322 11.7197 0.21967C11.8603 0.0790178 12.0511 0 12.25 0H17.5C17.8978 0 18.2794 0.158035 18.5607 0.43934C18.842 0.720644 19 1.10218 19 1.5V16.5C19 16.8978 18.842 17.2794 18.5607 17.5607C18.2794 17.842 17.8978 18 17.5 18H12.25C12.0511 18 11.8603 17.921 11.7197 17.7803C11.579 17.6397 11.5 17.4489 11.5 17.25C11.5 17.0511 11.579 16.8603 11.7197 16.7197C11.8603 16.579 12.0511 16.5 12.25 16.5Z" fill="#3554D1"/>
</svg>
