<svg width="40" height="40" viewBox="0 0 40 40" fill="none" xmlns="http://www.w3.org/2000/svg">
<rect width="40" height="40" rx="10" fill="#F3F7F9"/>
<path d="M29.6093 25.7938C30.1854 24.7185 30.4905 23.519 30.4982 22.2992C30.5059 21.0794 30.216 19.8761 29.6535 18.7937C29.0911 17.7113 28.2731 16.7824 27.2705 16.0875C26.2679 15.3927 25.111 14.9529 23.9 14.8063C23.5012 13.8763 22.9185 13.0366 22.1867 12.3378C21.455 11.639 20.5894 11.0954 19.6421 10.7399C18.6947 10.3844 17.6853 10.2242 16.6744 10.2691C15.6636 10.3139 14.6723 10.5629 13.7601 11.0009C12.848 11.4389 12.034 12.057 11.367 12.8178C10.7 13.5787 10.1939 14.4667 9.87905 15.4283C9.56425 16.39 9.44729 17.4053 9.5352 18.4133C9.62311 19.4214 9.91408 20.4012 10.3906 21.2938L9.80935 23.3188C9.74198 23.544 9.73681 23.7833 9.79438 24.0113C9.85196 24.2392 9.97013 24.4474 10.1364 24.6136C10.3026 24.7799 10.5108 24.898 10.7387 24.9556C10.9667 25.0132 11.206 25.008 11.4312 24.9406L13.4562 24.3594C14.2786 24.7978 15.1749 25.0806 16.1 25.1938C16.5086 26.1514 17.1121 27.0135 17.8721 27.7251C18.6321 28.4367 19.532 28.9823 20.5144 29.3271C21.4968 29.6719 22.5402 29.8084 23.5783 29.7279C24.6163 29.6473 25.6262 29.3516 26.5437 28.8594L28.5687 29.4406C28.794 29.508 29.0333 29.5132 29.2612 29.4556C29.4892 29.398 29.6973 29.2799 29.8636 29.1136C30.0298 28.9474 30.148 28.7392 30.2056 28.5113C30.2631 28.2833 30.258 28.044 30.1906 27.8188L29.6093 25.7938ZM28.1656 25.3156C28.111 25.401 28.0753 25.4969 28.0607 25.5972C28.0462 25.6974 28.0532 25.7996 28.0812 25.8969L28.6625 27.9125L26.6468 27.3313C26.5495 27.3032 26.4473 27.2962 26.3471 27.3108C26.2469 27.3253 26.1509 27.3611 26.0656 27.4156C25.3783 27.8212 24.6173 28.086 23.8267 28.1946C23.0362 28.3033 22.2319 28.2537 21.4607 28.0487C20.6895 27.8437 19.9668 27.4874 19.3346 27.0005C18.7024 26.5135 18.1733 25.9058 17.7781 25.2125C19.6214 25.0161 21.3271 24.1456 22.5678 22.7682C23.8084 21.3909 24.4965 19.6037 24.5 17.75C24.4979 17.3005 24.4571 16.8519 24.3781 16.4094C25.6938 16.7199 26.8661 17.4656 27.705 18.5257C28.5439 19.5858 29.0002 20.8982 29 22.25C28.9987 23.3278 28.7107 24.3859 28.1656 25.3156Z" fill="#3554D1"/>
</svg>
