<svg width="40" height="40" viewBox="0 0 40 40" fill="none" xmlns="http://www.w3.org/2000/svg">
<rect width="40" height="40" rx="10" fill="#F3F7F9"/>
<path d="M28.7002 24.4906C28.147 23.5344 27.4814 21.7156 27.4814 18.5V17.8344C27.4814 13.6813 24.1533 10.2781 20.0564 10.25H20.0002C19.0165 10.2512 18.0427 10.4462 17.1343 10.8238C16.226 11.2014 15.4009 11.7541 14.7062 12.4506C14.0115 13.147 13.4608 13.9735 13.0855 14.8827C12.7102 15.792 12.5177 16.7663 12.5189 17.75V18.5C12.5189 21.7156 11.8533 23.5344 11.3002 24.4906C11.1664 24.7185 11.0952 24.9777 11.0938 25.2419C11.0923 25.5061 11.1607 25.7661 11.2921 25.9954C11.4234 26.2247 11.6129 26.4152 11.8415 26.5477C12.0701 26.6803 12.3297 26.75 12.5939 26.75H16.2502C16.2502 27.7446 16.6453 28.6984 17.3485 29.4016C18.0518 30.1049 19.0056 30.5 20.0002 30.5C20.9947 30.5 21.9486 30.1049 22.6518 29.4016C23.3551 28.6984 23.7502 27.7446 23.7502 26.75H27.4064C27.6706 26.7517 27.9305 26.6831 28.1595 26.5513C28.3884 26.4196 28.5783 26.2293 28.7095 26C28.8397 25.7694 28.9073 25.5088 28.9056 25.2441C28.904 24.9793 28.8332 24.7196 28.7002 24.4906ZM20.0002 29C19.4042 28.9975 18.8333 28.7597 18.4119 28.3383C17.9905 27.9168 17.7526 27.346 17.7502 26.75H22.2502C22.2477 27.346 22.0099 27.9168 21.5884 28.3383C21.167 28.7597 20.5961 28.9975 20.0002 29Z" fill="#3554D1"/>
</svg>
