<svg width="40" height="40" viewBox="0 0 40 40" fill="none" xmlns="http://www.w3.org/2000/svg">
<rect width="40" height="40" rx="10" fill="#F3F7F9"/>
<path d="M28.0344 15.7156L22.7844 10.4656C22.6415 10.3263 22.4495 10.2489 22.25 10.25H13.25C12.8522 10.25 12.4706 10.408 12.1893 10.6894C11.908 10.9707 11.75 11.3522 11.75 11.75V28.25C11.75 28.6478 11.908 29.0294 12.1893 29.3107C12.4706 29.592 12.8522 29.75 13.25 29.75H26.75C27.1478 29.75 27.5294 29.592 27.8107 29.3107C28.092 29.0294 28.25 28.6478 28.25 28.25V16.25C28.2511 16.0505 28.1737 15.8585 28.0344 15.7156ZM23 24.5H17C16.8011 24.5 16.6103 24.421 16.4697 24.2803C16.329 24.1397 16.25 23.9489 16.25 23.75C16.25 23.5511 16.329 23.3603 16.4697 23.2197C16.6103 23.079 16.8011 23 17 23H23C23.1989 23 23.3897 23.079 23.5303 23.2197C23.671 23.3603 23.75 23.5511 23.75 23.75C23.75 23.9489 23.671 24.1397 23.5303 24.2803C23.3897 24.421 23.1989 24.5 23 24.5ZM23 21.5H17C16.8011 21.5 16.6103 21.421 16.4697 21.2803C16.329 21.1397 16.25 20.9489 16.25 20.75C16.25 20.5511 16.329 20.3603 16.4697 20.2197C16.6103 20.079 16.8011 20 17 20H23C23.1989 20 23.3897 20.079 23.5303 20.2197C23.671 20.3603 23.75 20.5511 23.75 20.75C23.75 20.9489 23.671 21.1397 23.5303 21.2803C23.3897 21.421 23.1989 21.5 23 21.5ZM22.25 16.25V12.125L26.375 16.25H22.25Z" fill="#3554D1"/>
</svg>
