<svg width="40" height="40" viewBox="0 0 40 40" fill="none" xmlns="http://www.w3.org/2000/svg">
<rect width="40" height="40" rx="10" fill="#F3F7F9"/>
<path d="M31.25 27.4999C31.25 27.6988 31.171 27.8895 31.0303 28.0302C30.8897 28.1708 30.6989 28.2499 30.5 28.2499H9.5C9.30109 28.2499 9.11032 28.1708 8.96967 28.0302C8.82902 27.8895 8.75 27.6988 8.75 27.4999C8.75 27.301 8.82902 27.1102 8.96967 26.9695C9.11032 26.8289 9.30109 26.7499 9.5 26.7499H30.5C30.6989 26.7499 30.8897 26.8289 31.0303 26.9695C31.171 27.1102 31.25 27.301 31.25 27.4999ZM9.52812 17.2061C9.48343 17.0489 9.49129 16.8815 9.55052 16.7291C9.60975 16.5768 9.7171 16.4481 9.85625 16.3624L19.6063 10.3624C19.7242 10.2883 19.8607 10.249 20 10.249C20.1393 10.249 20.2758 10.2883 20.3937 10.3624L30.1437 16.3624C30.2823 16.4482 30.3891 16.5769 30.448 16.7288C30.5069 16.8808 30.5147 17.0478 30.4702 17.2046C30.4257 17.3614 30.3313 17.4994 30.2014 17.5978C30.0714 17.6962 29.913 17.7496 29.75 17.7499H27.5V23.7499H29C29.1989 23.7499 29.3897 23.8289 29.5303 23.9695C29.671 24.1102 29.75 24.301 29.75 24.4999C29.75 24.6988 29.671 24.8895 29.5303 25.0302C29.3897 25.1708 29.1989 25.2499 29 25.2499H11C10.8011 25.2499 10.6103 25.1708 10.4697 25.0302C10.329 24.8895 10.25 24.6988 10.25 24.4999C10.25 24.301 10.329 24.1102 10.4697 23.9695C10.6103 23.8289 10.8011 23.7499 11 23.7499H12.5V17.7499H10.25C10.0869 17.75 9.92823 17.697 9.79796 17.5989C9.6677 17.5008 9.57297 17.3629 9.52812 17.2061ZM21.5 22.9999C21.5 23.1988 21.579 23.3895 21.7197 23.5302C21.8603 23.6708 22.0511 23.7499 22.25 23.7499C22.4489 23.7499 22.6397 23.6708 22.7803 23.5302C22.921 23.3895 23 23.1988 23 22.9999V18.4999C23 18.301 22.921 18.1102 22.7803 17.9695C22.6397 17.8289 22.4489 17.7499 22.25 17.7499C22.0511 17.7499 21.8603 17.8289 21.7197 17.9695C21.579 18.1102 21.5 18.301 21.5 18.4999V22.9999ZM17 22.9999C17 23.1988 17.079 23.3895 17.2197 23.5302C17.3603 23.6708 17.5511 23.7499 17.75 23.7499C17.9489 23.7499 18.1397 23.6708 18.2803 23.5302C18.421 23.3895 18.5 23.1988 18.5 22.9999V18.4999C18.5 18.301 18.421 18.1102 18.2803 17.9695C18.1397 17.8289 17.9489 17.7499 17.75 17.7499C17.5511 17.7499 17.3603 17.8289 17.2197 17.9695C17.079 18.1102 17 18.301 17 18.4999V22.9999Z" fill="#3554D1"/>
</svg>
