<svg width="40" height="40" viewBox="0 0 40 40" fill="none" xmlns="http://www.w3.org/2000/svg">
<rect width="40" height="40" rx="10" fill="#F3F7F9"/>
<path d="M30.2655 17.7781C30.2422 17.6732 30.1966 17.5746 30.1319 17.4889C30.0672 17.4032 29.9849 17.3323 29.8905 17.2812L27.6592 16.0437C27.5405 15.8 27.4092 15.5656 27.2655 15.3406L27.303 12.7906C27.3038 12.6836 27.2826 12.5776 27.2407 12.4792C27.1987 12.3808 27.137 12.2922 27.0592 12.2187C25.9482 11.2114 24.6344 10.4538 23.2061 9.99683C23.1035 9.96484 22.9953 9.95499 22.8887 9.96792C22.782 9.98085 22.6793 10.0163 22.5873 10.0718L20.403 11.3843C20.1311 11.375 19.8686 11.375 19.5967 11.3843L17.4123 10.0718C17.3204 10.0163 17.2177 9.98085 17.111 9.96792C17.0043 9.95499 16.8961 9.96484 16.7936 9.99683C15.3634 10.4541 14.049 11.2153 12.9405 12.2281C12.862 12.299 12.7997 12.3859 12.7576 12.4829C12.7156 12.5799 12.6948 12.6849 12.6967 12.7906L12.7436 15.3406C12.5936 15.5656 12.4623 15.8 12.3311 16.0437L10.1092 17.2812C10.0136 17.3308 9.93028 17.4012 9.86539 17.4871C9.8005 17.5731 9.75568 17.6725 9.7342 17.7781C9.41542 19.2422 9.41542 20.7577 9.7342 22.2218C9.75749 22.3267 9.80302 22.4253 9.86772 22.511C9.93241 22.5967 10.0148 22.6676 10.1092 22.7187L12.3405 23.9562C12.4601 24.1987 12.5947 24.4336 12.7436 24.6593L12.6967 27.2093C12.6958 27.3163 12.717 27.4223 12.759 27.5207C12.8009 27.6191 12.8627 27.7078 12.9405 27.7812C14.053 28.7864 15.3663 29.5437 16.7936 30.0031C16.8961 30.0351 17.0043 30.0449 17.111 30.032C17.2177 30.0191 17.3204 29.9836 17.4123 29.9281L19.5967 28.6156H20.403L22.5967 29.9281C22.7107 30.0031 22.8446 30.0422 22.9811 30.0406C23.0573 30.0373 23.1329 30.0247 23.2061 30.0031C24.6363 29.5458 25.9507 28.7846 27.0592 27.7718C27.1376 27.7009 27.2 27.614 27.242 27.517C27.2841 27.42 27.3048 27.3151 27.303 27.2093L27.2655 24.6593C27.4061 24.4343 27.5373 24.2 27.6686 23.9562L29.8998 22.7187C29.9929 22.667 30.0737 22.5959 30.1368 22.5101C30.1999 22.4244 30.2438 22.3261 30.2655 22.2218C30.5842 20.7577 30.5842 19.2422 30.2655 17.7781ZM24.1248 20C24.1248 20.8158 23.8829 21.6133 23.4296 22.2917C22.9764 22.97 22.3321 23.4987 21.5784 23.811C20.8247 24.1232 19.9952 24.2049 19.1951 24.0457C18.3949 23.8865 17.6599 23.4937 17.083 22.9168C16.5061 22.3399 16.1133 21.6049 15.9541 20.8047C15.7949 20.0045 15.8766 19.1751 16.1888 18.4214C16.501 17.6676 17.0297 17.0234 17.7081 16.5701C18.3865 16.1169 19.184 15.875 19.9998 15.875C21.0938 15.875 22.1431 16.3095 22.9166 17.0831C23.6902 17.8567 24.1248 18.9059 24.1248 20Z" fill="#3554D1"/>
</svg>
