<svg width="40" height="40" viewBox="0 0 40 40" fill="none" xmlns="http://www.w3.org/2000/svg">
<rect width="40" height="40" rx="10" fill="#F3F7F9"/>
<path d="M29.8906 20.0002V27.5002C29.8881 28.494 29.4923 29.4464 28.7895 30.1491C28.0868 30.8519 27.1344 31.2477 26.1406 31.2502H20.75C20.5511 31.2502 20.3603 31.1712 20.2197 31.0306C20.079 30.8899 20 30.6991 20 30.5002C20 30.3013 20.079 30.1105 20.2197 29.9699C20.3603 29.8292 20.5511 29.7502 20.75 29.7502H26.1406C26.7366 29.7478 27.3075 29.5099 27.7289 29.0885C28.1503 28.6671 28.3882 28.0962 28.3906 27.5002V27.369C28.1501 27.4557 27.8963 27.5001 27.6406 27.5002H26.1406C25.5439 27.5002 24.9716 27.2632 24.5496 26.8412C24.1277 26.4193 23.8906 25.847 23.8906 25.2502V21.5002C23.8906 20.9035 24.1277 20.3312 24.5496 19.9092C24.9716 19.4873 25.5439 19.2502 26.1406 19.2502H28.3531C28.1651 17.1898 27.2097 15.2752 25.6765 13.8861C24.1432 12.4969 22.1439 11.7346 20.075 11.7502H20.0656C17.9955 11.7303 15.9938 12.4911 14.4596 13.8811C12.9254 15.2711 11.9713 17.1882 11.7875 19.2502H14C14.596 19.2527 15.1668 19.4905 15.5883 19.912C16.0097 20.3334 16.2475 20.9042 16.25 21.5002V25.2502C16.2475 25.8462 16.0097 26.4171 15.5883 26.8385C15.1668 27.2599 14.596 27.4978 14 27.5002H12.5C11.904 27.4978 11.3332 27.2599 10.9117 26.8385C10.4903 26.4171 10.2525 25.8462 10.25 25.2502V20.0002C10.25 18.7143 10.5043 17.4411 10.9984 16.2538C11.4925 15.0666 12.2165 13.9889 13.1289 13.0826C14.0412 12.1764 15.1238 11.4596 16.3143 10.9735C17.5048 10.4874 18.7797 10.2416 20.0656 10.2502H20.1406C22.7257 10.2527 25.2042 11.2807 27.0322 13.1087C28.8601 14.9366 29.8881 17.4151 29.8906 20.0002Z" fill="#3554D1"/>
</svg>
