<svg width="33" height="32" viewBox="0 0 33 32" fill="none" xmlns="http://www.w3.org/2000/svg">
<path opacity="0.2" d="M16.5 19C12.2872 19.0066 8.14764 17.8991 4.50098 15.7898V26C4.50098 26.1313 4.52684 26.2614 4.5771 26.3827C4.62735 26.504 4.70101 26.6143 4.79387 26.7071C4.88673 26.8 4.99697 26.8736 5.11829 26.9239C5.23962 26.9741 5.36965 27 5.50098 27H27.501C27.6323 27 27.7623 26.9741 27.8837 26.9239C28.005 26.8736 28.1152 26.8 28.2081 26.7071C28.3009 26.6143 28.3746 26.504 28.4249 26.3827C28.4751 26.2614 28.501 26.1313 28.501 26V15.7886C24.8539 17.8987 20.7135 19.0066 16.5 19Z" fill="#717394"/>
<path d="M27.501 9H5.50098C4.94869 9 4.50098 9.44772 4.50098 10V26C4.50098 26.5523 4.94869 27 5.50098 27H27.501C28.0533 27 28.501 26.5523 28.501 26V10C28.501 9.44772 28.0533 9 27.501 9Z" stroke="#717394" stroke-width="2" stroke-linecap="round" stroke-linejoin="round"/>
<path d="M21.5 9V7C21.5 6.46957 21.2893 5.96086 20.9142 5.58579C20.5391 5.21071 20.0304 5 19.5 5H13.5C12.9696 5 12.4609 5.21071 12.0858 5.58579C11.7107 5.96086 11.5 6.46957 11.5 7V9" stroke="#717394" stroke-width="2" stroke-linecap="round" stroke-linejoin="round"/>
<path d="M28.5012 15.7886C24.854 17.8987 20.7137 19.0066 16.5002 19C12.2873 19.0066 8.14768 17.8991 4.50098 15.7897" stroke="#717394" stroke-width="2" stroke-linecap="round" stroke-linejoin="round"/>
<path d="M15 15H18" stroke="#717394" stroke-width="2" stroke-linecap="round" stroke-linejoin="round"/>
</svg>
