<svg width="33" height="32" viewBox="0 0 33 32" fill="none" xmlns="http://www.w3.org/2000/svg">
<path opacity="0.2" d="M4.5 15H11.6012C11.8316 15 12.0549 15.0796 12.2333 15.2254C12.4117 15.3711 12.5342 15.5741 12.58 15.7999C12.7646 16.7033 13.2555 17.5153 13.9698 18.0984C14.6841 18.6815 15.5779 19 16.5 19C17.4221 19 18.3159 18.6815 19.0302 18.0984C19.7445 17.5153 20.2354 16.7033 20.42 15.7999C20.4658 15.5741 20.5883 15.3711 20.7667 15.2254C20.9451 15.0796 21.1684 15 21.3988 15H28.5V9C28.5 8.46957 28.2893 7.96086 27.9142 7.58579C27.5391 7.21071 27.0304 7 26.5 7H6.5C5.96957 7 5.46086 7.21071 5.08579 7.58579C4.71071 7.96086 4.5 8.46957 4.5 9V15Z" fill="#717394"/>
<path d="M26.5 7H6.5C5.39543 7 4.5 7.89543 4.5 9V23C4.5 24.1046 5.39543 25 6.5 25H26.5C27.6046 25 28.5 24.1046 28.5 23V9C28.5 7.89543 27.6046 7 26.5 7Z" stroke="#717394" stroke-width="2" stroke-linecap="round" stroke-linejoin="round"/>
<path d="M4.5 15H11.6012C11.8316 15 12.0549 15.0796 12.2333 15.2254C12.4117 15.3711 12.5342 15.5741 12.58 15.7999C12.7646 16.7033 13.2555 17.5153 13.9698 18.0984C14.6841 18.6815 15.5779 19 16.5 19C17.4221 19 18.3159 18.6815 19.0302 18.0984C19.7445 17.5153 20.2354 16.7033 20.42 15.7999C20.4658 15.5741 20.5883 15.3711 20.7667 15.2254C20.9451 15.0796 21.1684 15 21.3988 15H28.5" stroke="#717394" stroke-width="2" stroke-linecap="round" stroke-linejoin="round"/>
<path d="M4.5 11H28.5" stroke="#717394" stroke-width="2" stroke-linecap="round" stroke-linejoin="round"/>
</svg>
