<svg width="26" height="28" viewBox="0 0 26 28" fill="none" xmlns="http://www.w3.org/2000/svg">
<path d="M9.19181 25.7095V21.6203C9.19178 20.5841 10.0344 19.7423 11.0781 19.7358H14.9103C15.9587 19.7358 16.8085 20.5795 16.8085 21.6203V25.6976C16.8085 26.5964 17.5389 27.3268 18.4441 27.3333H21.0586C22.2797 27.3364 23.4518 26.857 24.3164 26.0009C25.1809 25.1448 25.6668 23.9823 25.6668 22.77V11.1545C25.6668 10.1752 25.2296 9.24627 24.473 8.61799L15.5908 1.56568C14.0382 0.332153 11.8207 0.372001 10.314 1.6605L1.62285 8.61799C0.830484 9.22775 0.356899 10.1594 0.333496 11.1545V22.7582C0.333496 25.2849 2.39667 27.3333 4.94173 27.3333H7.49655C7.93239 27.3364 8.35148 27.1668 8.66079 26.8619C8.97011 26.557 9.14406 26.1422 9.14405 25.7095H9.19181Z" fill="#3554D1"/>
</svg>
